<svg width="32" height="32" viewBox="0 0 32 32" fill="none" xmlns="http://www.w3.org/2000/svg">
<path d="M3.98054 13.6067C4.33999 13.1677 4.51973 12.9483 4.69437 13.0108C4.86899 13.0734 4.86847 13.3779 4.86742 13.9869C4.86741 13.9945 4.86741 14.0023 4.86741 14.01C4.86741 21.2576 10.7427 27.1329 17.9903 27.1329C17.998 27.1329 18.0058 27.1329 18.0135 27.1329C18.6224 27.1319 18.927 27.1313 18.9895 27.306C19.052 27.4807 18.8326 27.6604 18.3936 28.0199C16.6276 29.466 14.3696 30.3336 11.909 30.3336C6.25231 30.3336 1.66669 25.748 1.66669 20.0913C1.66669 17.6307 2.53441 15.3728 3.98054 13.6067Z" fill="currentColor"/>
<path fill-rule="evenodd" clip-rule="evenodd" d="M18.6667 1.66699C12.2233 1.66699 7 6.89034 7 13.3336C7 19.7769 12.2233 25.0003 18.6667 25.0003C25.11 25.0003 30.3333 19.7769 30.3333 13.3336C30.3333 6.89034 25.11 1.66699 18.6667 1.66699ZM19 7.33366C19 6.78138 18.5523 6.33366 18 6.33366C17.4477 6.33366 17 6.78138 17 7.33366V7.66699H16.6667H16.6208C16.3473 7.66687 16.0516 7.66677 15.8019 7.70033C15.5095 7.73965 15.1359 7.84075 14.8215 8.15515C14.5071 8.46955 14.406 8.84314 14.3667 9.13557C14.3331 9.38519 14.3332 9.68091 14.3333 9.95441V10.0003V16.6669V16.7129C14.3332 16.9864 14.3331 17.2821 14.3667 17.5317C14.406 17.8241 14.5071 18.1977 14.8215 18.5121C15.1359 18.8265 15.5095 18.9277 15.8019 18.9671C16.0516 19.0005 16.3472 19.0004 16.6207 19.0004L16.6667 19.0003H17V19.3336C17 19.886 17.4477 20.3336 18 20.3336C18.5523 20.3336 19 19.886 19 19.3336V19.0003H20C21.796 19.0003 23 17.3577 23 15.6669C23 14.8068 22.6883 13.9589 22.1456 13.3336C22.6883 12.7084 23 11.8606 23 11.0003C23 9.30955 21.796 7.66699 20 7.66699H19V7.33366ZM21 11.0003C21 11.8869 20.4132 12.3337 20 12.3337H16.3333V10.0003C16.3333 9.86823 16.3335 9.76114 16.3349 9.66854C16.4275 9.66705 16.5345 9.66699 16.6667 9.66699H20C20.4132 9.66699 21 10.1138 21 11.0003ZM20 14.3336H16.3333V16.6669C16.3333 16.7991 16.3335 16.9061 16.3349 16.9988C16.4275 17.0003 16.5345 17.0003 16.6667 17.0003H20C20.4132 17.0003 21 16.5536 21 15.6669C21 14.7804 20.4132 14.3336 20 14.3336Z" fill="currentColor"/>
</svg>
