<svg width="32" height="32" viewBox="0 0 32 32" fill="none" xmlns="http://www.w3.org/2000/svg">
<path fill-rule="evenodd" clip-rule="evenodd" d="M4.76897 2.28535C6.51152 1.68217 8.8324 1.33333 11.3334 1.33333C13.8343 1.33333 16.1552 1.68217 17.8978 2.28535C18.7627 2.58475 19.558 2.97161 20.1634 3.46709C20.759 3.95453 21.3334 4.69034 21.3334 5.66666V8.00768C21.3334 8.24752 21.3334 8.36744 21.2856 8.45618C21.2479 8.52624 21.193 8.58122 21.1228 8.61892C21.0342 8.66666 20.9116 8.66666 20.6667 8.66666C18.0042 8.66666 15.4519 9.03509 13.448 9.72871C12.4618 10.0701 11.4256 10.5524 10.57 11.2527C10.0524 11.6763 9.43504 12.3251 9.04688 13.2006C8.96135 13.3935 8.91859 13.49 8.84521 13.5333C8.77183 13.5768 8.67659 13.5688 8.48612 13.5527C6.14444 13.3543 4.16887 12.8973 2.68385 12.1823C2.38788 12.0398 2.11356 11.8885 1.86096 11.7282C1.61919 11.5748 1.49831 11.4981 1.41584 11.3481C1.33337 11.1981 1.33337 11.0351 1.33337 10.7092V5.66672C1.33337 4.69041 1.90773 3.95453 2.50332 3.46709C3.10875 2.97161 3.90404 2.58475 4.76897 2.28535ZM4.19223 5.53075C4.46392 5.30841 4.93783 5.04882 5.64127 4.80533C7.03543 4.32273 9.04788 3.99999 11.3334 3.99999C13.6188 3.99999 15.6314 4.32273 17.0255 4.80533C17.729 5.04882 18.2028 5.30841 18.4746 5.53075C18.5623 5.60259 18.5623 5.73073 18.4746 5.80257C18.2028 6.02492 17.729 6.2845 17.0255 6.52799C15.6314 7.01059 13.6188 7.33333 11.3334 7.33333C9.04788 7.33333 7.03543 7.01059 5.64127 6.52799C4.93783 6.2845 4.46392 6.02492 4.19223 5.80257C4.10445 5.73073 4.10445 5.60259 4.19223 5.53075Z" fill="currentColor"/>
<path d="M8.66671 16.0688C8.66671 15.8345 8.66671 15.7175 8.59683 15.6411C8.52695 15.5647 8.40888 15.5541 8.17273 15.5329C5.72503 15.3139 3.54671 14.8175 1.81623 13.9844C1.73245 13.944 1.69057 13.9239 1.66345 13.9172C1.513 13.8804 1.37124 13.9695 1.33916 14.1209C1.33337 14.1483 1.33337 14.192 1.33337 14.2793V18.4405C1.33337 18.7939 1.33337 18.9704 1.42941 19.1293C1.52544 19.2884 1.66215 19.3603 1.93556 19.504C2.14956 19.6164 2.38 19.7232 2.62733 19.8239C4.04231 20.4004 5.90068 20.7395 8.10373 20.8956C8.36587 20.9141 8.49693 20.9233 8.58181 20.8443C8.66671 20.7652 8.66671 20.6325 8.66671 20.3672V16.0688Z" fill="currentColor"/>
<path d="M8.66671 23.4401C8.66671 23.2013 8.66671 23.0819 8.59467 23.0049C8.52264 22.928 8.40231 22.9201 8.16164 22.9044C5.74632 22.746 3.58868 22.3752 1.87275 21.6761C1.72571 21.6161 1.65219 21.5863 1.59985 21.5863C1.48819 21.5864 1.39536 21.6488 1.35315 21.7521C1.33337 21.8007 1.33337 21.8764 1.33337 22.028V25.3333C1.33337 26.3325 1.98784 27.0309 2.56341 27.4496C3.16817 27.8896 3.95755 28.2301 4.813 28.4933C5.86569 28.8173 7.133 29.0584 8.52559 29.1973C9.01203 29.2459 9.25524 29.2701 9.34491 29.1432C9.43456 29.0164 9.31783 28.7683 9.08437 28.272C8.83307 27.7379 8.66671 27.1143 8.66671 26.4003V23.4401Z" fill="currentColor"/>
<path fill-rule="evenodd" clip-rule="evenodd" d="M20.6667 10.6667C18.1658 10.6667 15.8449 11.0155 14.1023 11.6187C13.2374 11.9181 12.4421 12.305 11.8367 12.8004C11.2411 13.2879 10.6667 14.0237 10.6667 15V18.5077C10.6667 19.1113 10.6667 19.4132 10.8328 19.714C10.9989 20.0148 11.2047 20.1444 11.6163 20.4036C13.6335 21.6736 16.7445 22.3331 20.6669 22.3331C24.5893 22.3331 27.7002 21.6736 29.7174 20.4036C30.1289 20.1445 30.3346 20.0149 30.5006 19.7141C30.6667 19.4133 30.6667 19.1115 30.6667 18.5077V15.0003C30.6667 14.024 30.0923 13.2879 29.4967 12.8004C28.8914 12.305 28.0961 11.9181 27.2311 11.6187C25.4886 11.0155 23.1677 10.6667 20.6667 10.6667ZM14.9746 14.1387C14.2711 14.3821 13.7973 14.6417 13.5255 14.8641C13.4378 14.936 13.4378 15.064 13.5255 15.1359C13.7973 15.3583 14.2711 15.6179 14.9746 15.8613C16.3687 16.344 18.3813 16.6667 20.6667 16.6667C22.9522 16.6667 24.9647 16.344 26.3589 15.8613C27.0623 15.6179 27.5362 15.3583 27.8079 15.1359C27.8957 15.064 27.8957 14.936 27.8079 14.8641C27.5362 14.6417 27.0623 14.3821 26.3589 14.1387C24.9647 13.656 22.9522 13.3333 20.6667 13.3333C18.3813 13.3333 16.3687 13.656 14.9746 14.1387Z" fill="currentColor"/>
<path d="M20.6669 24.3331C24.4641 24.3331 27.8087 23.7488 30.2557 22.406C30.4425 22.3035 30.5359 22.2523 30.6013 22.2909C30.6667 22.3297 30.6667 22.4343 30.6667 22.6433V26.4003C30.6667 27.3801 30.0781 28.1088 29.4854 28.5832C28.8798 29.0677 28.0855 29.4453 27.2225 29.7375C25.4829 30.3263 23.1651 30.6669 20.6667 30.6669C18.1683 30.6669 15.8506 30.3263 14.111 29.7375C13.248 29.4453 12.4536 29.0677 11.8481 28.5832C11.2554 28.1088 10.6667 27.3801 10.6667 26.4003V22.6432C10.6667 22.4341 10.6667 22.3296 10.7322 22.2908C10.7976 22.2521 10.891 22.3033 11.0778 22.4059C13.5249 23.7487 16.8695 24.3331 20.6669 24.3331Z" fill="currentColor"/>
</svg>
