<svg width="32" height="32" viewBox="0 0 32 32" fill="none" xmlns="http://www.w3.org/2000/svg">
<path fill-rule="evenodd" clip-rule="evenodd" d="M23.0827 2.57412C21.2915 2.3333 18.9972 2.33332 16.0763 2.33333H15.9238C13.0029 2.33332 10.7086 2.3333 8.9174 2.57412C7.08187 2.8209 5.62552 3.33696 4.48125 4.48121C3.337 5.62548 2.82095 7.08182 2.57416 8.91736C2.33335 10.7086 2.33336 13.0028 2.33337 15.9237V16.0763C2.33336 18.9972 2.33335 21.2915 2.57416 23.0827C2.82095 24.9181 3.337 26.3745 4.48125 27.5188C5.62552 28.6631 7.08187 29.1791 8.9174 29.4259C10.7086 29.6667 13.0028 29.6667 15.9238 29.6667H16.0763C18.9972 29.6667 21.2915 29.6667 23.0827 29.4259C24.9182 29.1791 26.3746 28.6631 27.5188 27.5188C28.6631 26.3745 29.1791 24.9181 29.4259 23.0827C29.6667 21.2915 29.6667 18.9972 29.6667 16.0763V15.9237C29.6667 13.0028 29.6667 10.7086 29.4259 8.91736C29.1791 7.08182 28.6631 5.62548 27.5188 4.48121C26.3746 3.33696 24.9182 2.8209 23.0827 2.57412ZM21.3334 9.66666C20.7811 9.66666 20.3334 10.1144 20.3334 10.6667C20.3334 11.2189 20.7811 11.6667 21.3334 11.6667C21.5799 11.6667 21.8207 11.8782 21.8207 12.1905V13.8451C21.8207 14.5067 22.0771 15.146 22.5407 15.6209L22.9107 16L22.5407 16.3791C22.0771 16.854 21.8207 17.4933 21.8207 18.1549V19.8095C21.8207 20.1217 21.5799 20.3333 21.3334 20.3333C20.7811 20.3333 20.3334 20.7811 20.3334 21.3333C20.3334 21.8856 20.7811 22.3333 21.3334 22.3333C22.7298 22.3333 23.8207 21.1804 23.8207 19.8095V18.1549C23.8207 18.0084 23.8778 17.8725 23.972 17.776L24.4978 17.2372C25.1674 16.5512 25.1675 15.4488 24.4978 14.7628L23.972 14.224C23.8778 14.1275 23.8207 13.9916 23.8207 13.8451V12.1905C23.8207 10.8196 22.7298 9.66666 21.3334 9.66666ZM11.6667 10.6667C11.6667 10.1144 11.219 9.66666 10.6667 9.66666C9.27029 9.66666 8.17935 10.8196 8.17935 12.1905V13.8451C8.17935 13.9916 8.12227 14.1275 8.02811 14.224L7.50224 14.7628C6.83264 15.4488 6.83264 16.5512 7.50224 17.2372L8.02811 17.776C8.12227 17.8725 8.17935 18.0084 8.17935 18.1549V19.8095C8.17935 21.1804 9.27029 22.3333 10.6667 22.3333C11.219 22.3333 11.6667 21.8856 11.6667 21.3333C11.6667 20.7811 11.219 20.3333 10.6667 20.3333C10.4202 20.3333 10.1793 20.1217 10.1793 19.8095V18.1549C10.1793 17.4933 9.92303 16.854 9.45933 16.3791L9.0894 16L9.45933 15.6209C9.92303 15.146 10.1793 14.5067 10.1793 13.8451V12.1905C10.1793 11.8782 10.4202 11.6667 10.6667 11.6667C11.219 11.6667 11.6667 11.2189 11.6667 10.6667ZM13.3334 14.6667C12.597 14.6667 12 15.2636 12 16C12 16.7364 12.597 17.3333 13.3334 17.3333H13.3454C14.0816 17.3333 14.6787 16.7364 14.6787 16C14.6787 15.2636 14.0816 14.6667 13.3454 14.6667H13.3334ZM18.6547 14.6667C17.9184 14.6667 17.3214 15.2636 17.3214 16C17.3214 16.7364 17.9184 17.3333 18.6547 17.3333H18.6667C19.4031 17.3333 20 16.7364 20 16C20 15.2636 19.4031 14.6667 18.6667 14.6667H18.6547Z" fill="currentColor"/>
</svg>
