<svg width="120" height="25" viewBox="0 0 120 25" fill="none" xmlns="http://www.w3.org/2000/svg">
<path d="M105.03 18.5L110.126 12.052L105.186 5.78601H107.656L111.452 10.7H111.816L115.586 5.78601H118.082L113.116 12.052L118.212 18.5H115.716L111.816 13.43H111.452L107.552 18.5H105.03Z" fill="#61F0FE"/>
<path d="M101.532 23.7V16.498H101.168C100.96 16.8793 100.665 17.252 100.284 17.616C99.9027 17.98 99.4 18.2747 98.776 18.5C98.1693 18.7427 97.424 18.864 96.54 18.864C95.4307 18.864 94.4167 18.604 93.498 18.084C92.5967 17.564 91.8773 16.81 91.34 15.822C90.8027 14.834 90.534 13.664 90.534 12.312V11.974C90.534 10.6047 90.8027 9.43466 91.34 8.464C91.8773 7.49333 92.6053 6.748 93.524 6.228C94.4427 5.69066 95.448 5.422 96.54 5.422C97.8573 5.422 98.88 5.67333 99.608 6.176C100.336 6.67866 100.873 7.25066 101.22 7.892H101.584V5.786H103.586V23.7H101.532ZM97.086 17.044C98.4033 17.044 99.4693 16.628 100.284 15.796C101.116 14.9467 101.532 13.768 101.532 12.26V12.026C101.532 10.518 101.116 9.348 100.284 8.516C99.4693 7.66666 98.4033 7.242 97.086 7.242C95.786 7.242 94.7113 7.66666 93.862 8.516C93.03 9.348 92.614 10.518 92.614 12.026V12.26C92.614 13.768 93.03 14.9467 93.862 15.796C94.7113 16.628 95.786 17.044 97.086 17.044Z" fill="#61F0FE"/>
<path d="M5.25 0.5H0.75C0.335786 0.5 0 0.835787 0 1.25V17.75C0 18.1642 0.335786 18.5 0.75 18.5H5.25C5.66421 18.5 6 18.1642 6 17.75V1.25C6 0.835786 5.66421 0.5 5.25 0.5Z" fill="white"/>
<path d="M13.25 0.5H8.75C8.33579 0.5 8 0.835786 8 1.25V23.75C8 24.1642 8.33579 24.5 8.75 24.5H13.25C13.6642 24.5 14 24.1642 14 23.75V1.25C14 0.835786 13.6642 0.5 13.25 0.5Z" fill="white"/>
<path d="M78.2335 19.064C77.0029 19.064 75.8849 18.804 74.8795 18.284C73.8915 17.764 73.1029 17.01 72.5135 16.022C71.9415 15.034 71.6555 13.8467 71.6555 12.46V12.122C71.6555 10.7353 71.9415 9.55667 72.5135 8.58601C73.1029 7.59801 73.8915 6.84401 74.8795 6.32401C75.8849 5.78667 77.0029 5.51801 78.2335 5.51801C79.4642 5.51801 80.5129 5.74334 81.3795 6.19401C82.2462 6.64467 82.9395 7.24267 83.4595 7.98801C83.9969 8.73334 84.3435 9.55667 84.4995 10.458L81.8995 11.004C81.8129 10.432 81.6309 9.912 81.3535 9.44401C81.0762 8.97601 80.6862 8.60334 80.1835 8.32601C79.6809 8.04867 79.0482 7.91001 78.2855 7.91001C77.5402 7.91001 76.8642 8.08334 76.2575 8.43001C75.6682 8.75934 75.2002 9.24467 74.8535 9.88601C74.5069 10.51 74.3335 11.2727 74.3335 12.174V12.408C74.3335 13.3093 74.5069 14.0807 74.8535 14.722C75.2002 15.3633 75.6682 15.8487 76.2575 16.178C76.8642 16.5073 77.5402 16.672 78.2855 16.672C79.4122 16.672 80.2702 16.386 80.8595 15.814C81.4489 15.2247 81.8215 14.4793 81.9775 13.578L84.5775 14.176C84.3695 15.06 83.9969 15.8747 83.4595 16.62C82.9395 17.3653 82.2462 17.9633 81.3795 18.414C80.5129 18.8473 79.4642 19.064 78.2335 19.064Z" fill="white"/>
<path d="M67.4472 18.7V5.882H70.1252V18.7H67.4472ZM68.7992 4.14C68.2792 4.14 67.8372 3.97533 67.4732 3.646C67.1265 3.29933 66.9532 2.85733 66.9532 2.32C66.9532 1.78267 67.1265 1.34933 67.4732 1.02C67.8372 0.673334 68.2792 0.5 68.7992 0.5C69.3365 0.5 69.7785 0.673334 70.1252 1.02C70.4719 1.34933 70.6452 1.78267 70.6452 2.32C70.6452 2.85733 70.4719 3.29933 70.1252 3.646C69.7785 3.97533 69.3365 4.14 68.7992 4.14Z" fill="white"/>
<path d="M60.0209 19.064C58.7729 19.064 57.8109 18.8387 57.1349 18.388C56.4763 17.9373 55.9823 17.4347 55.6529 16.88H55.2369V18.7H52.6109V0.5H55.2889V7.624H55.7049C55.9129 7.27733 56.1903 6.948 56.5369 6.636C56.8836 6.30667 57.3429 6.038 57.9149 5.83C58.4869 5.622 59.1889 5.518 60.0209 5.518C61.0956 5.518 62.0836 5.778 62.9849 6.298C63.8863 6.818 64.6056 7.572 65.1429 8.56C65.6803 9.548 65.9489 10.7267 65.9489 12.096V12.486C65.9489 13.8727 65.6716 15.06 65.1169 16.048C64.5796 17.0187 63.8603 17.764 62.9589 18.284C62.0749 18.804 61.0956 19.064 60.0209 19.064ZM59.2409 16.724C60.4023 16.724 61.3556 16.3513 62.1009 15.606C62.8636 14.8607 63.2449 13.7947 63.2449 12.408V12.174C63.2449 10.8047 62.8723 9.74733 62.1269 9.002C61.3816 8.25667 60.4196 7.884 59.2409 7.884C58.0969 7.884 57.1436 8.25667 56.3809 9.002C55.6356 9.74733 55.2629 10.8047 55.2629 12.174V12.408C55.2629 13.7947 55.6356 14.8607 56.3809 15.606C57.1436 16.3513 58.0969 16.724 59.2409 16.724Z" fill="white"/>
<path d="M43.3742 18.934C42.4036 18.934 41.5369 18.7174 40.7742 18.284C40.0116 17.8507 39.4136 17.2354 38.9802 16.438C38.5469 15.6407 38.3302 14.6874 38.3302 13.578V5.88202H41.0082V13.396C41.0082 14.5054 41.2856 15.3287 41.8402 15.866C42.3949 16.386 43.1662 16.646 44.1542 16.646C45.2462 16.646 46.1216 16.282 46.7802 15.554C47.4562 14.8087 47.7942 13.7427 47.7942 12.356V5.88202H50.4722V18.7H47.8462V16.776H47.4302C47.1876 17.296 46.7542 17.79 46.1302 18.258C45.5062 18.7087 44.5876 18.934 43.3742 18.934Z" fill="white"/>
<path d="M33.66 23.9V16.958H33.244C33.0533 17.3047 32.776 17.6427 32.412 17.972C32.048 18.284 31.58 18.544 31.008 18.752C30.4533 18.96 29.76 19.064 28.928 19.064C27.8533 19.064 26.8653 18.804 25.964 18.284C25.0627 17.764 24.3433 17.0187 23.806 16.048C23.2687 15.06 23 13.8727 23 12.486V12.096C23 10.7093 23.2687 9.53067 23.806 8.56001C24.3607 7.57201 25.0887 6.81801 25.99 6.29801C26.8913 5.77801 27.8707 5.51801 28.928 5.51801C30.176 5.51801 31.1293 5.74334 31.788 6.19401C32.464 6.64467 32.9667 7.15601 33.296 7.72801H33.712V5.88201H36.338V23.9H33.66ZM29.682 16.724C30.8607 16.724 31.8227 16.3513 32.568 15.606C33.3133 14.8607 33.686 13.7947 33.686 12.408V12.174C33.686 10.8047 33.3047 9.74734 32.542 9.00201C31.7967 8.25667 30.8433 7.88401 29.682 7.88401C28.538 7.88401 27.5847 8.25667 26.822 9.00201C26.0767 9.74734 25.704 10.8047 25.704 12.174V12.408C25.704 13.7947 26.0767 14.8607 26.822 15.606C27.5847 16.3513 28.538 16.724 29.682 16.724Z" fill="white"/>
</svg>
